HIERARCHY
ROOT Hips
{
	OFFSET 0.000000 0.000000 0.000000 
	CHANNELS 6 Xposition Yposition Zposition Yrotation Zrotation Xrotation 
	JOINT Lumbar
	{
		OFFSET 0.000000 0.000000 0.000000 
		CHANNELS 3 Zrotation Xrotation Yrotation
		JOINT Neck
		{
			OFFSET 0.000000 0.445665 0.000000 
			CHANNELS 3 Zrotation Xrotation Yrotation
			End Site
			{
				OFFSET 0.000000 0.227535 0.000000 
			}
		}
		JOINT RightShoulder
		{
			OFFSET 0.019635 0.377685 0.194865 
			CHANNELS 3 Zrotation Xrotation Yrotation
			JOINT RightElbow
			{
				OFFSET 0.000000 -0.243375 0.000000 
				CHANNELS 2 Zrotation Yrotation
				JOINT RightWrist
				{
					OFFSET 0.000000 -0.264825 0.000000 
					CHANNELS 2 Zrotation Xrotation
					End Site
					{
						OFFSET 0.006600 -0.176220 0.000990 
					}
				}
			}
		}
		JOINT LeftShoulder
		{
			OFFSET 0.019635 0.377685 -0.194865 
			CHANNELS 3 Zrotation Xrotation Yrotation
			JOINT LeftElbow
			{
				OFFSET 0.000000 -0.243375 0.000000 
				CHANNELS 2 Zrotation Yrotation
				JOINT LeftWrist
				{
					OFFSET 0.000000 -0.264825 0.000000 
					CHANNELS 2 Zrotation Xrotation
					End Site
					{
						OFFSET 0.006600 -0.176220 -0.000990 
					}
				}
			}
		}
	}
	JOINT RightHip
	{
		OFFSET 0.052140 -0.069960 0.075570 
		CHANNELS 3 Zrotation Xrotation Yrotation
		JOINT RightKnee
		{
			OFFSET 0.000000 -0.402270 0.000000 
			CHANNELS 1 Zrotation
			JOINT RightAnkle
			{
				OFFSET 0.000000 -0.404085 0.000000 
				CHANNELS 3 Zrotation Xrotation Yrotation
				End Site
				{
					OFFSET 0.204105 -0.089430 0.008415 
				}
			}
		}
	}
	JOINT LeftHip
	{
		OFFSET 0.052140 -0.069960 -0.075570 
		CHANNELS 3 Zrotation Xrotation Yrotation
		JOINT LeftKnee
		{
			OFFSET 0.000000 -0.402270 0.000000 
			CHANNELS 1 Zrotation
			JOINT LeftAnkle
			{
				OFFSET 0.000000 -0.404085 0.000000 
				CHANNELS 3 Zrotation Xrotation Yrotation
				End Site
				{
					OFFSET 0.204105 -0.089430 -0.008415 
				}
			}
		}
	}
}
MOTION
Frames: 10
Frame Time: 0.02
0.38405 -0.0108 0.61738 124.45024 -42.07188 1.87975 50.9434 -1.79365 -4.04879 -4.47977 -9.99803 -2.11994 166.38287 -99.97206 -87.14324 121.22504 78.45273 -75.22666 -21.88649 166.3869 71.17823 87.14684 122.37371 -61.21495 -75.22912 21.88492 64.44821 -10.66333 -1.53566 -17.71631 -10.48928 -1.27103 -3.02617 50.36531 0.7827 16.90352 -31.90271 -6.47823 2.40656 3.38904
0.38332 -0.01061 0.61778 124.79807 -41.99678 1.8468 51.13446 -1.76259 -3.39288 -5.00734 -9.65683 -2.11994 166.39638 -97.427 -87.15539 120.99243 76.548 -75.23562 -21.88778 166.3869 72.20043 87.14684 119.72852 -61.70949 -75.2292 21.88484 64.291 -10.85317 -2.19765 -17.65794 -10.51672 -1.26912 -3.02814 50.32085 0.73601 16.74205 -31.87174 -6.46998 2.38854 3.38173
0.38247 -0.01048 0.61801 125.0716 -41.90119 1.79754 51.35379 -1.71989 -2.57395 -5.5748 -9.27079 -2.11994 166.37595 -94.87982 -87.13686 119.95788 74.79779 -75.22198 -21.88565 166.38689 73.0054 87.14684 116.4549 -62.15413 -75.22893 21.88455 64.09715 -11.04592 -3.01049 -17.5769 -10.54333 -1.24024 -3.01732 50.24759 0.69333 16.58383 -31.84736 -6.46002 2.38156 3.38062
0.38167 -0.01032 0.61831 125.37052 -41.81353 1.75433 51.55902 -1.67996 -1.82391 -6.11612 -8.90441 -2.11994 166.38244 -92.31425 -87.14315 119.18287 73.00365 -75.22648 -21.88628 166.3869 73.90849 87.14684 113.39149 -62.62008 -75.22929 21.8846 63.91896 -11.23197 -3.73305 -17.5068 -10.56968 -1.22539 -3.01313 50.18454 0.65121 16.43024 -31.81985 -6.45057 2.36965 3.37663
0.38089 -0.01017 0.61861 125.70554 -41.73038 1.71517 51.76969 -1.64955 -1.09421 -6.6946 -8.53901 -2.11994 166.43966 -89.79775 -87.19392 118.8828 71.08263 -75.26414 -21.8917 166.38688 74.81092 87.14684 110.66381 -63.09213 -75.22917 21.88439 63.74187 -11.4401 -4.5491 -17.43411 -10.59623 -1.20281 -3.0053 50.13252 0.59962 16.24589 -31.79299 -6.44241 2.35769 3.37307
0.38004 -0.01002 0.61888 125.94954 -41.63408 1.66564 51.97595 -1.59785 -0.28501 -7.20409 -8.16265 -2.11994 166.25862 -87.20309 -87.03132 117.37573 69.46331 -75.14411 -21.87392 166.38688 75.67846 87.14684 107.05667 -63.54303 -75.22805 21.88374 63.55724 -11.60415 -5.20553 -17.36299 -10.62515 -1.19054 -3.00244 50.05168 0.56743 16.12877 -31.76608 -6.43109 2.34806 3.3699
0.379 -0.00983 0.61906 125.93397 -41.49883 1.57514 52.15938 -1.47928 0.71567 -7.51002 -7.75508 -2.11994 166.54573 -84.24233 -87.29147 112.92236 68.71207 -75.3354 -21.90208 166.38695 76.31867 87.14684 101.4929 -63.91009 -75.23148 21.88556 63.33179 -11.63341 -5.3855 -17.28129 -10.63512 -1.20686 -3.01214 49.89109 0.60098 16.18982 -31.74034 -6.41161 2.34553 3.36787
0.37789 -0.00963 0.61922 125.83364 -41.35236 1.47753 52.33779 -1.34165 1.78832 -7.74488 -7.34016 -2.11994 166.42208 -81.232 -87.17411 107.24927 68.25279 -75.2507 -21.88865 166.38677 76.9568 87.14684 95.02213 -64.26805 -75.22623 21.88322 63.10487 -11.62022 -5.39971 -17.20496 -10.65182 -1.2356 -3.02804 49.70375 0.65169 16.31974 -31.71388 -6.38899 2.34441 3.36579
0.37681 -0.00943 0.6194 125.78923 -41.21639 1.39431 52.52121 -1.22007 2.82037 -8.01441 -6.9369 -2.11994 165.70698 -78.34831 -86.54081 102.00128 67.61005 -74.78044 -21.82005 166.38704 77.72362 87.14685 88.74135 -64.64905 -75.22819 21.88428 62.89852 -11.63479 -5.48805 -17.13997 -10.68297 -1.26291 -3.04395 49.53366 0.68582 16.42388 -31.68575 -6.36767 2.34029 3.36264
0.37571 -0.00925 0.61953 125.66963 -41.05776 1.26467 52.69511 -1.06733 3.89199 -8.27691 -6.49796 -2.11994 168.12559 -75.03223 -88.71163 97.25065 67.16984 -76.38319 -22.05566 166.38698 77.97245 87.14685 83.31787 -64.93186 -75.24226 21.89147 62.60946 -11.61461 -5.58446 -17.01822 -10.64225 -1.27167 -3.0476 49.34171 0.75656 16.50707 -31.66596 -6.34677 2.34612 3.36411
